<?xml version="1.0" encoding="utf-8"?>
<!-- Generator: Adobe Illustrator 24.1.3, SVG Export Plug-In . SVG Version: 6.00 Build 0)  -->
<svg version="1.1" id="Camada_1" xmlns="http://www.w3.org/2000/svg" xmlns:xlink="http://www.w3.org/1999/xlink" x="0px" y="0px"
	 viewBox="0 0 1366 768" style="enable-background:new 0 0 1366 768;" xml:space="preserve">
<style type="text/css">
	.st0{fill:url(#SVGID_1_);}
	.st1{fill:none;stroke:#FFFFFF;stroke-width:13.1064;}
	.st2{fill:#00003C;}
	.st3{fill:url(#SVGID_2_);}
	.st4{fill:url(#SVGID_3_);}
	.st5{fill:url(#SVGID_4_);}
	.st6{fill:url(#SVGID_5_);}
	.st7{fill:url(#SVGID_6_);}
	.st8{fill:url(#SVGID_7_);}
	.st9{fill:none;stroke:#000000;stroke-width:1.3106;}
	.st10{fill:#FFFFFF;}
	.st11{filter:url(#Adobe_OpacityMaskFilter);}
	.st12{fill:url(#SVGID_9_);stroke:#000000;stroke-miterlimit:10;}
	.st13{mask:url(#SVGID_8_);}
	.st14{fill:url(#SVGID_10_);}
	.st15{opacity:0.19;enable-background:new    ;}
	.st16{enable-background:new    ;}
	.st17{opacity:0.5;enable-background:new    ;}
	.st18{fill:url(#SVGID_11_);}
	.st19{fill:url(#SVGID_12_);}
	.st20{fill:url(#SVGID_13_);}
	.st21{fill:url(#SVGID_14_);}
	.st22{fill:url(#SVGID_15_);}
	.st23{fill:url(#SVGID_16_);}
	.st24{fill:#303030;}
</style>
<g>
	<linearGradient id="SVGID_1_" gradientUnits="userSpaceOnUse" x1="528.9242" y1="45.133" x2="837.0758" y2="578.867">
		<stop  offset="0" style="stop-color:#00FF00"/>
		<stop  offset="0.2203" style="stop-color:#00AAF7"/>
		<stop  offset="0.6015" style="stop-color:#170C66"/>
		<stop  offset="1" style="stop-color:#FF09DE"/>
	</linearGradient>
	<path class="st0" d="M683,620c-82.3,0-159.6-32-217.8-90.2S375,394.3,375,312s32-159.6,90.2-217.8S600.7,4,683,4
		s159.6,32,217.8,90.2S991,229.7,991,312s-32,159.6-90.2,217.8S765.3,620,683,620z M683,44.8c-147.3,0-267.2,119.9-267.2,267.2
		S535.7,579.2,683,579.2S950.2,459.3,950.2,312S830.3,44.8,683,44.8z"/>
	<g>
		
			<image style="overflow:visible;opacity:0.19;enable-background:new    ;" width="1035" height="258" xlink:href="85B57C72.png"  transform="matrix(0.9961 0 0 0.9961 173.2102 285.2043)">
		</image>
		<g>
			<g>
				<path class="st1" d="M339.1,481.9l-2.1,23.7c-13,3.9-27.2,5.9-42.6,5.9c-36.5,0-63.8-10-82.2-30c-18.3-20-27.5-44.4-27.5-73.2
					c0-30.2,10.2-56.2,30.7-78.1s47.9-32.8,82.5-32.8c9.5,0,19.6,1.4,30.2,4.3l-4.4,25.3c-12.2-3.8-23-5.7-32.6-5.7
					c-25.6,0-45.1,8-58.3,23.8c-13.2,15.9-19.9,35.3-19.9,58.3c0,23.4,7.6,43.5,22.9,60.2s36.3,25.1,63.3,25.1
					C309.3,488.8,322.7,486.5,339.1,481.9z"/>
				<path class="st1" d="M557.9,400.6c0,34.2-10,61.6-30,82.1s-43.2,30.8-69.4,30.8c-25.2,0-47.3-9.4-66.4-28.2
					c-19-18.8-28.5-44.2-28.5-76.2c0-34.6,10-62.1,30-82.4s43.2-30.4,69.4-30.4c25.2,0,47.3,9.4,66.4,28.2
					C548.4,343.2,557.9,368.6,557.9,400.6z M529.7,404.2c0-27.3-7.2-48.5-21.5-63.5c-14.4-15-30.9-22.5-49.7-22.5
					c-17.4,0-32.8,7.9-46.4,23.7c-13.6,15.8-20.3,36.9-20.3,63.3c0,27.4,7.2,48.6,21.7,63.6s31,22.5,49.7,22.5
					c17.4,0,32.8-8,46.3-24C522.9,451.3,529.7,430.3,529.7,404.2z"/>
				<path class="st1" d="M633.7,507.2h-30.2c1.6-34.3,2.4-70.6,2.4-108.7c0-37.5-0.8-70.2-2.4-98.2h30.2
					c-1.5,28.9-2.2,61.7-2.2,98.2C631.5,436.9,632.3,473.1,633.7,507.2z"/>
				<path class="st1" d="M814.3,453.6c0,39.2-27.3,58.8-81.8,58.8c-19.9,0-37.6-2.3-53.1-6.8l5.6-25c17.8,6.1,34.7,9.2,50.7,9.2
					c36,0,54-10.2,54-30.5c0-10.3-4.7-19.1-14-26.4c-6.3-4.9-18.5-11.4-36.9-19.5c-19.3-8.6-32.8-16.5-40.5-23.7
					c-10.7-10-16-22.5-16-37.5c0-15.7,5.5-28.5,16.4-38.3c12.2-11,29.4-16.5,51.7-16.5c25.2,0,42.5,1.6,51.8,4.9l-3.8,25.3
					c-16.1-5.1-33.2-7.6-51.3-7.6c-27.2,0-40.8,9.1-40.8,27.3c0,8.8,3.9,16.2,11.8,22.1c5.1,3.7,16.3,9.3,33.7,16.8
					c19.8,8.6,34.1,16.7,42.9,24.5C807.6,422.4,814.3,436.7,814.3,453.6z"/>
				<path class="st1" d="M1028.8,507.2h-33.5c0-7.1-6.7-29.4-20-66.9h-91.7c-13.1,37-19.7,59.3-19.7,66.9h-32.1
					c0-3.9,13.7-37.8,41-101.6s41-98.9,41-105.3h36.9c0,6.3,13,40.8,39.1,103.8C1015.8,467,1028.8,501.4,1028.8,507.2z M967.9,419.5
					c-24.9-62.2-37.3-95.2-37.3-99.2h-1.8c0,3.3-12.9,36.3-38.6,99.2H967.9z"/>
				<path class="st1" d="M1181.2,453.6c0,39.2-27.3,58.8-81.8,58.8c-19.9,0-37.6-2.3-53.1-6.8l5.6-25c17.8,6.1,34.7,9.2,50.7,9.2
					c36,0,54-10.2,54-30.5c0-10.3-4.7-19.1-14-26.4c-6.3-4.9-18.5-11.4-36.9-19.5c-19.3-8.6-32.8-16.5-40.5-23.7
					c-10.7-10-16.1-22.5-16.1-37.5c0-15.7,5.5-28.5,16.4-38.3c12.2-11,29.4-16.5,51.7-16.5c25.2,0,42.5,1.6,51.8,4.9l-3.8,25.3
					c-16.1-5.1-33.2-7.6-51.3-7.6c-27.2,0-40.8,9.1-40.8,27.3c0,8.8,3.9,16.2,11.8,22.1c5.1,3.7,16.3,9.3,33.7,16.8
					c19.8,8.6,34.1,16.7,42.9,24.5C1174.6,422.4,1181.2,436.7,1181.2,453.6z"/>
			</g>
			<g>
				<path class="st2" d="M339.1,481.9l-2.1,23.7c-13,3.9-27.2,5.9-42.6,5.9c-36.5,0-63.8-10-82.2-30c-18.3-20-27.5-44.4-27.5-73.2
					c0-30.2,10.2-56.2,30.7-78.1s47.9-32.8,82.5-32.8c9.5,0,19.6,1.4,30.2,4.3l-4.4,25.3c-12.2-3.8-23-5.7-32.6-5.7
					c-25.6,0-45.1,8-58.3,23.8c-13.2,15.9-19.9,35.3-19.9,58.3c0,23.4,7.6,43.5,22.9,60.2s36.3,25.1,63.3,25.1
					C309.3,488.8,322.7,486.5,339.1,481.9z"/>
				<path class="st2" d="M557.9,400.6c0,34.2-10,61.6-30,82.1s-43.2,30.8-69.4,30.8c-25.2,0-47.3-9.4-66.4-28.2
					c-19-18.8-28.5-44.2-28.5-76.2c0-34.6,10-62.1,30-82.4s43.2-30.4,69.4-30.4c25.2,0,47.3,9.4,66.4,28.2
					C548.4,343.2,557.9,368.6,557.9,400.6z M529.7,404.2c0-27.3-7.2-48.5-21.5-63.5c-14.4-15-30.9-22.5-49.7-22.5
					c-17.4,0-32.8,7.9-46.4,23.7c-13.6,15.8-20.3,36.9-20.3,63.3c0,27.4,7.2,48.6,21.7,63.6s31,22.5,49.7,22.5
					c17.4,0,32.8-8,46.3-24C522.9,451.3,529.7,430.3,529.7,404.2z"/>
				<path class="st2" d="M633.7,507.2h-30.2c1.6-34.3,2.4-70.6,2.4-108.7c0-37.5-0.8-70.2-2.4-98.2h30.2
					c-1.5,28.9-2.2,61.7-2.2,98.2C631.5,436.9,632.3,473.1,633.7,507.2z"/>
				<path class="st2" d="M814.3,453.6c0,39.2-27.3,58.8-81.8,58.8c-19.9,0-37.6-2.3-53.1-6.8l5.6-25c17.8,6.1,34.7,9.2,50.7,9.2
					c36,0,54-10.2,54-30.5c0-10.3-4.7-19.1-14-26.4c-6.3-4.9-18.5-11.4-36.9-19.5c-19.3-8.6-32.8-16.5-40.5-23.7
					c-10.7-10-16-22.5-16-37.5c0-15.7,5.5-28.5,16.4-38.3c12.2-11,29.4-16.5,51.7-16.5c25.2,0,42.5,1.6,51.8,4.9l-3.8,25.3
					c-16.1-5.1-33.2-7.6-51.3-7.6c-27.2,0-40.8,9.1-40.8,27.3c0,8.8,3.9,16.2,11.8,22.1c5.1,3.7,16.3,9.3,33.7,16.8
					c19.8,8.6,34.1,16.7,42.9,24.5C807.6,422.4,814.3,436.7,814.3,453.6z"/>
				<path class="st2" d="M1028.8,507.2h-33.5c0-7.1-6.7-29.4-20-66.9h-91.7c-13.1,37-19.7,59.3-19.7,66.9h-32.1
					c0-3.9,13.7-37.8,41-101.6s41-98.9,41-105.3h36.9c0,6.3,13,40.8,39.1,103.8C1015.8,467,1028.8,501.4,1028.8,507.2z M967.9,419.5
					c-24.9-62.2-37.3-95.2-37.3-99.2h-1.8c0,3.3-12.9,36.3-38.6,99.2H967.9z"/>
				<path class="st2" d="M1181.2,453.6c0,39.2-27.3,58.8-81.8,58.8c-19.9,0-37.6-2.3-53.1-6.8l5.6-25c17.8,6.1,34.7,9.2,50.7,9.2
					c36,0,54-10.2,54-30.5c0-10.3-4.7-19.1-14-26.4c-6.3-4.9-18.5-11.4-36.9-19.5c-19.3-8.6-32.8-16.5-40.5-23.7
					c-10.7-10-16.1-22.5-16.1-37.5c0-15.7,5.5-28.5,16.4-38.3c12.2-11,29.4-16.5,51.7-16.5c25.2,0,42.5,1.6,51.8,4.9l-3.8,25.3
					c-16.1-5.1-33.2-7.6-51.3-7.6c-27.2,0-40.8,9.1-40.8,27.3c0,8.8,3.9,16.2,11.8,22.1c5.1,3.7,16.3,9.3,33.7,16.8
					c19.8,8.6,34.1,16.7,42.9,24.5C1174.6,422.4,1181.2,436.7,1181.2,453.6z"/>
			</g>
			<g>
				
					<image style="overflow:visible;opacity:0.5;enable-background:new    ;" width="1011" height="236" xlink:href="85B57C76.png"  transform="matrix(0.9958 0 0 0.9958 182.2782 290.1362)">
				</image>
				<g>
					<radialGradient id="SVGID_2_" cx="682.9993" cy="404.7827" r="360.5496" gradientUnits="userSpaceOnUse">
						<stop  offset="0" style="stop-color:#EFEEED"/>
						<stop  offset="0" style="stop-color:#E0DFDE"/>
						<stop  offset="0" style="stop-color:#B9B8B8"/>
						<stop  offset="0" style="stop-color:#7B7A7A"/>
						<stop  offset="0" style="stop-color:#3B3B3B"/>
						<stop  offset="0.2981" style="stop-color:#2C2C2D"/>
						<stop  offset="0.5225" style="stop-color:#1E1E1F"/>
						<stop  offset="0.7212" style="stop-color:#151515"/>
						<stop  offset="1" style="stop-color:#000000"/>
					</radialGradient>
					<path class="st3" d="M339.1,481.9l-2.1,23.7c-13,3.9-27.2,5.9-42.6,5.9c-36.5,0-63.8-10-82.2-30c-18.3-20-27.5-44.4-27.5-73.2
						c0-30.2,10.2-56.2,30.7-78.1s47.9-32.8,82.5-32.8c9.5,0,19.6,1.4,30.2,4.3l-4.4,25.3c-12.2-3.8-23-5.7-32.6-5.7
						c-25.6,0-45.1,8-58.3,23.8c-13.2,15.9-19.9,35.3-19.9,58.3c0,23.4,7.6,43.5,22.9,60.2s36.3,25.1,63.3,25.1
						C309.3,488.8,322.7,486.5,339.1,481.9z"/>
					<radialGradient id="SVGID_3_" cx="682.9993" cy="404.9" r="360.7168" gradientUnits="userSpaceOnUse">
						<stop  offset="0" style="stop-color:#EFEEED"/>
						<stop  offset="0" style="stop-color:#E0DFDE"/>
						<stop  offset="0" style="stop-color:#B9B8B8"/>
						<stop  offset="0" style="stop-color:#7B7A7A"/>
						<stop  offset="0" style="stop-color:#3B3B3B"/>
						<stop  offset="0.2981" style="stop-color:#2C2C2D"/>
						<stop  offset="0.5225" style="stop-color:#1E1E1F"/>
						<stop  offset="0.7212" style="stop-color:#151515"/>
						<stop  offset="1" style="stop-color:#000000"/>
					</radialGradient>
					<path class="st4" d="M557.9,400.6c0,34.2-10,61.6-30,82.1s-43.2,30.8-69.4,30.8c-25.2,0-47.3-9.4-66.4-28.2
						c-19-18.8-28.5-44.2-28.5-76.2c0-34.6,10-62.1,30-82.4s43.2-30.4,69.4-30.4c25.2,0,47.3,9.4,66.4,28.2
						C548.4,343.2,557.9,368.6,557.9,400.6z M529.7,404.2c0-27.3-7.2-48.5-21.5-63.5c-14.4-15-30.9-22.5-49.7-22.5
						c-17.4,0-32.8,7.9-46.4,23.7c-13.6,15.8-20.3,36.9-20.3,63.3c0,27.4,7.2,48.6,21.7,63.6s31,22.5,49.7,22.5
						c17.4,0,32.8-8,46.3-24C522.9,451.3,529.7,430.3,529.7,404.2z"/>
					<radialGradient id="SVGID_4_" cx="682.9993" cy="404.7827" r="360.5496" gradientUnits="userSpaceOnUse">
						<stop  offset="0" style="stop-color:#EFEEED"/>
						<stop  offset="0" style="stop-color:#E0DFDE"/>
						<stop  offset="0" style="stop-color:#B9B8B8"/>
						<stop  offset="0" style="stop-color:#7B7A7A"/>
						<stop  offset="0" style="stop-color:#3B3B3B"/>
						<stop  offset="0.2981" style="stop-color:#2C2C2D"/>
						<stop  offset="0.5225" style="stop-color:#1E1E1F"/>
						<stop  offset="0.7212" style="stop-color:#151515"/>
						<stop  offset="1" style="stop-color:#000000"/>
					</radialGradient>
					<path class="st5" d="M633.7,507.2h-30.2c1.6-34.3,2.4-70.6,2.4-108.7c0-37.5-0.8-70.2-2.4-98.2h30.2
						c-1.5,28.9-2.2,61.7-2.2,98.2C631.5,436.9,632.3,473.1,633.7,507.2z"/>
					<radialGradient id="SVGID_5_" cx="682.9993" cy="404.9" r="360.7076" gradientUnits="userSpaceOnUse">
						<stop  offset="0" style="stop-color:#EFEEED"/>
						<stop  offset="0" style="stop-color:#E0DFDE"/>
						<stop  offset="0" style="stop-color:#B9B8B8"/>
						<stop  offset="0" style="stop-color:#7B7A7A"/>
						<stop  offset="0" style="stop-color:#3B3B3B"/>
						<stop  offset="0.2981" style="stop-color:#2C2C2D"/>
						<stop  offset="0.5225" style="stop-color:#1E1E1F"/>
						<stop  offset="0.7212" style="stop-color:#151515"/>
						<stop  offset="1" style="stop-color:#000000"/>
					</radialGradient>
					<path class="st6" d="M814.3,453.6c0,39.2-27.3,58.8-81.8,58.8c-19.9,0-37.6-2.3-53.1-6.8l5.6-25c17.8,6.1,34.7,9.2,50.7,9.2
						c36,0,54-10.2,54-30.5c0-10.3-4.7-19.1-14-26.4c-6.3-4.9-18.5-11.4-36.9-19.5c-19.3-8.6-32.8-16.5-40.5-23.7
						c-10.7-10-16-22.5-16-37.5c0-15.7,5.5-28.5,16.4-38.3c12.2-11,29.4-16.5,51.7-16.5c25.2,0,42.5,1.6,51.8,4.9l-3.8,25.3
						c-16.1-5.1-33.2-7.6-51.3-7.6c-27.2,0-40.8,9.1-40.8,27.3c0,8.8,3.9,16.2,11.8,22.1c5.1,3.7,16.3,9.3,33.7,16.8
						c19.8,8.6,34.1,16.7,42.9,24.5C807.6,422.4,814.3,436.7,814.3,453.6z"/>
					<radialGradient id="SVGID_6_" cx="682.9993" cy="404.7827" r="360.5496" gradientUnits="userSpaceOnUse">
						<stop  offset="0" style="stop-color:#EFEEED"/>
						<stop  offset="0" style="stop-color:#E0DFDE"/>
						<stop  offset="0" style="stop-color:#B9B8B8"/>
						<stop  offset="0" style="stop-color:#7B7A7A"/>
						<stop  offset="0" style="stop-color:#3B3B3B"/>
						<stop  offset="0.2981" style="stop-color:#2C2C2D"/>
						<stop  offset="0.5225" style="stop-color:#1E1E1F"/>
						<stop  offset="0.7212" style="stop-color:#151515"/>
						<stop  offset="1" style="stop-color:#000000"/>
					</radialGradient>
					<path class="st7" d="M1028.8,507.2h-33.5c0-7.1-6.7-29.4-20-66.9h-91.7c-13.1,37-19.7,59.3-19.7,66.9h-32.1
						c0-3.9,13.7-37.8,41-101.6s41-98.9,41-105.3h36.9c0,6.3,13,40.8,39.1,103.8C1015.8,467,1028.8,501.4,1028.8,507.2z
						 M967.9,419.5c-24.9-62.2-37.3-95.2-37.3-99.2h-1.8c0,3.3-12.9,36.3-38.6,99.2H967.9z"/>
					<radialGradient id="SVGID_7_" cx="682.9993" cy="404.9" r="360.3888" gradientUnits="userSpaceOnUse">
						<stop  offset="0" style="stop-color:#EFEEED"/>
						<stop  offset="0" style="stop-color:#E0DFDE"/>
						<stop  offset="0" style="stop-color:#B9B8B8"/>
						<stop  offset="0" style="stop-color:#7B7A7A"/>
						<stop  offset="0" style="stop-color:#3B3B3B"/>
						<stop  offset="0.2981" style="stop-color:#2C2C2D"/>
						<stop  offset="0.5225" style="stop-color:#1E1E1F"/>
						<stop  offset="0.7212" style="stop-color:#151515"/>
						<stop  offset="1" style="stop-color:#000000"/>
					</radialGradient>
					<path class="st8" d="M1181.2,453.6c0,39.2-27.3,58.8-81.8,58.8c-19.9,0-37.6-2.3-53.1-6.8l5.6-25c17.8,6.1,34.7,9.2,50.7,9.2
						c36,0,54-10.2,54-30.5c0-10.3-4.7-19.1-14-26.4c-6.3-4.9-18.5-11.4-36.9-19.5c-19.3-8.6-32.8-16.5-40.5-23.7
						c-10.7-10-16.1-22.5-16.1-37.5c0-15.7,5.5-28.5,16.4-38.3c12.2-11,29.4-16.5,51.7-16.5c25.2,0,42.5,1.6,51.8,4.9l-3.8,25.3
						c-16.1-5.1-33.2-7.6-51.3-7.6c-27.2,0-40.8,9.1-40.8,27.3c0,8.8,3.9,16.2,11.8,22.1c5.1,3.7,16.3,9.3,33.7,16.8
						c19.8,8.6,34.1,16.7,42.9,24.5C1174.6,422.4,1181.2,436.7,1181.2,453.6z"/>
				</g>
			</g>
			<g>
				<path class="st9" d="M339.1,481.9l-2.1,23.7c-13,3.9-27.2,5.9-42.6,5.9c-36.5,0-63.8-10-82.2-30c-18.3-20-27.5-44.4-27.5-73.2
					c0-30.2,10.2-56.2,30.7-78.1s47.9-32.8,82.5-32.8c9.5,0,19.6,1.4,30.2,4.3l-4.4,25.3c-12.2-3.8-23-5.7-32.6-5.7
					c-25.6,0-45.1,8-58.3,23.8c-13.2,15.9-19.9,35.3-19.9,58.3c0,23.4,7.6,43.5,22.9,60.2s36.3,25.1,63.3,25.1
					C309.3,488.8,322.7,486.5,339.1,481.9z"/>
				<path class="st9" d="M557.9,400.6c0,34.2-10,61.6-30,82.1s-43.2,30.8-69.4,30.8c-25.2,0-47.3-9.4-66.4-28.2
					c-19-18.8-28.5-44.2-28.5-76.2c0-34.6,10-62.1,30-82.4s43.2-30.4,69.4-30.4c25.2,0,47.3,9.4,66.4,28.2
					C548.4,343.2,557.9,368.6,557.9,400.6z M529.7,404.2c0-27.3-7.2-48.5-21.5-63.5c-14.4-15-30.9-22.5-49.7-22.5
					c-17.4,0-32.8,7.9-46.4,23.7c-13.6,15.8-20.3,36.9-20.3,63.3c0,27.4,7.2,48.6,21.7,63.6s31,22.5,49.7,22.5
					c17.4,0,32.8-8,46.3-24C522.9,451.3,529.7,430.3,529.7,404.2z"/>
				<path class="st9" d="M633.7,507.2h-30.2c1.6-34.3,2.4-70.6,2.4-108.7c0-37.5-0.8-70.2-2.4-98.2h30.2
					c-1.5,28.9-2.2,61.7-2.2,98.2C631.5,436.9,632.3,473.1,633.7,507.2z"/>
				<path class="st9" d="M814.3,453.6c0,39.2-27.3,58.8-81.8,58.8c-19.9,0-37.6-2.3-53.1-6.8l5.6-25c17.8,6.1,34.7,9.2,50.7,9.2
					c36,0,54-10.2,54-30.5c0-10.3-4.7-19.1-14-26.4c-6.3-4.9-18.5-11.4-36.9-19.5c-19.3-8.6-32.8-16.5-40.5-23.7
					c-10.7-10-16-22.5-16-37.5c0-15.7,5.5-28.5,16.4-38.3c12.2-11,29.4-16.5,51.7-16.5c25.2,0,42.5,1.6,51.8,4.9l-3.8,25.3
					c-16.1-5.1-33.2-7.6-51.3-7.6c-27.2,0-40.8,9.1-40.8,27.3c0,8.8,3.9,16.2,11.8,22.1c5.1,3.7,16.3,9.3,33.7,16.8
					c19.8,8.6,34.1,16.7,42.9,24.5C807.6,422.4,814.3,436.7,814.3,453.6z"/>
				<path class="st9" d="M1028.8,507.2h-33.5c0-7.1-6.7-29.4-20-66.9h-91.7c-13.1,37-19.7,59.3-19.7,66.9h-32.1
					c0-3.9,13.7-37.8,41-101.6s41-98.9,41-105.3h36.9c0,6.3,13,40.8,39.1,103.8C1015.8,467,1028.8,501.4,1028.8,507.2z M967.9,419.5
					c-24.9-62.2-37.3-95.2-37.3-99.2h-1.8c0,3.3-12.9,36.3-38.6,99.2H967.9z"/>
				<path class="st9" d="M1181.2,453.6c0,39.2-27.3,58.8-81.8,58.8c-19.9,0-37.6-2.3-53.1-6.8l5.6-25c17.8,6.1,34.7,9.2,50.7,9.2
					c36,0,54-10.2,54-30.5c0-10.3-4.7-19.1-14-26.4c-6.3-4.9-18.5-11.4-36.9-19.5c-19.3-8.6-32.8-16.5-40.5-23.7
					c-10.7-10-16.1-22.5-16.1-37.5c0-15.7,5.5-28.5,16.4-38.3c12.2-11,29.4-16.5,51.7-16.5c25.2,0,42.5,1.6,51.8,4.9l-3.8,25.3
					c-16.1-5.1-33.2-7.6-51.3-7.6c-27.2,0-40.8,9.1-40.8,27.3c0,8.8,3.9,16.2,11.8,22.1c5.1,3.7,16.3,9.3,33.7,16.8
					c19.8,8.6,34.1,16.7,42.9,24.5C1174.6,422.4,1181.2,436.7,1181.2,453.6z"/>
			</g>
		</g>
	</g>
	<g>
		<path class="st10" d="M479.8,232.8c-8,8.4-14,12.7-18,12.7c-2.2,0-4-1.1-5.6-3.4c-1.5-2.3-2.3-5.1-2.3-8.5
			c0-7.3,2.5-17.4,7.4-30.4l13.1-2.7h0.6l-5.1,16.1c-2.1,6.7-3.2,11.4-3.2,14.3c0,1.1,0.3,2.1,0.8,2.8s1.1,1.1,1.9,1.1
			c1.3,0,2.7-0.5,4-1.5c1.4-1,3.5-3.1,6.4-6.4L479.8,232.8L479.8,232.8z M478.8,180.4c0,8.2-3,12.4-9.1,12.4c-3,0-5.5-0.9-7.6-2.7
			c2-3,3.5-6.4,4.6-10.2c2.7,1.7,4.9,2.5,6.5,2.5C475.1,182.4,476.9,181.8,478.8,180.4z"/>
		<path class="st10" d="M530.4,232.8c-7.9,8.4-14.7,12.6-20.4,12.6c-2.3,0-4.1-0.8-5.6-2.4s-2.1-3.8-2.1-6.5c0-3.7,1.5-9.3,4.5-16.8
			c1.6-4.1,2.4-6.6,2.4-7.7s-0.4-1.6-1.3-1.6c-0.5,0-1.1,0.2-1.9,0.7c-0.7,0.5-1.6,1.1-2.5,2c-0.9,0.8-1.8,1.8-2.9,2.9
			c-0.9,1-1.9,2.1-3,3.3l-2.9,3.4c-1.3,1.5-2.1,3.2-2.4,4.9c-0.5,2.9-0.9,5.6-1,8c-0.1,1.8-0.1,4.3-0.1,7.4l-11.4,2.7
			c-0.4-4.6-0.6-8.1-0.6-10.4c0-5.5,0.6-10.8,1.9-15.7s3.4-10.5,6.2-16.7l12.6-2.4c-2.6,7.1-4.4,12.7-5.2,16.8
			c5.6-6.3,10.1-10.6,13.4-13.1c3.3-2.4,6.2-3.6,8.8-3.6c1.8,0,3.2,0.7,4.4,2s1.8,3,1.8,5c0,3.3-1.5,8.7-4.4,16.3
			c-2,5.2-3,8.6-3,10.1c0,2.1,0.8,3.1,2.5,3.1c2.5,0,6.6-3.3,12.2-9.9V232.8L530.4,232.8L530.4,232.8z"/>
		<path class="st10" d="M560,232.8c-4.3,4.3-8.1,7.5-11.2,9.5s-6.2,3.1-9,3.1c-3,0-5.3-1.2-7.2-3.7c-1.8-2.5-2.8-5.8-2.8-9.8
			c0-3.6,0.9-8.3,2.6-14.1l2.2-7.8l-4,0.2l1.7-8.1l4.9-0.2l4.8-16.1l13.8-2.8l-5.3,17.9l7.3-0.4l-1.7,7.9l-8,0.6l-3.4,11.5
			c-1.2,4-1.8,7.2-1.8,9.6c0,1.6,0.4,2.9,1.2,3.9s1.8,1.5,3.1,1.5c1.8,0,3.5-0.6,5.2-1.7c1.7-1.1,4.3-3.4,7.6-7L560,232.8L560,232.8
			z"/>
		<path class="st10" d="M598.5,232.8c-4.4,4.3-8.3,7.5-11.7,9.5s-7.3,3.1-11.5,3.1c-4.7,0-8.4-1.5-11.3-4.5c-2.9-3-4.3-6.9-4.3-11.8
			c0-7.3,2.5-13.9,7.6-19.8s10.6-8.8,16.8-8.8c3.2,0,5.8,0.8,7.7,2.5s2.9,3.8,2.9,6.5c0,7.1-7.5,12.9-22.7,17.3
			c1.4,6.7,5,10,10.8,10c2.3,0,4.4-0.6,6.5-1.8s5.2-3.9,9.3-8.1L598.5,232.8L598.5,232.8z M571.5,223.3c8.8-2.5,13.2-7,13.2-13.7
			c0-3.3-1.2-4.9-3.6-4.9c-2.3,0-4.4,1.7-6.5,5.2C572.5,213.3,571.5,217.8,571.5,223.3z"/>
		<path class="st10" d="M632.5,232.8c-4.7,4.3-8.8,7.5-12.3,9.5s-6.9,3.1-10.1,3.1c-3.7,0-6.6-1.4-8.9-4.3
			c-2.3-2.9-3.4-6.7-3.4-11.5c0-7.2,1.6-15.9,4.7-26c3.1-10.1,6.9-19.4,11.4-27.9l13.1-4.8c0.4-0.1,0.7-0.2,0.9-0.2
			c1,0,1.8,0.7,2.5,2.2c0.6,1.5,1,3.4,1,5.9c0,7-1.6,13.8-4.8,20.3c-3.2,6.6-8.3,13.6-15.1,21c-0.3,3.6-0.4,6-0.4,7.4
			c0,3,0.5,5.4,1.7,7.1c1.1,1.8,2.6,2.6,4.4,2.6c1.8,0,3.8-0.7,5.9-2c2.1-1.3,5.3-4.1,9.6-8.3L632.5,232.8L632.5,232.8z
			 M612.8,212.7c4.4-4.9,7.9-10.3,10.6-16.3c2.7-6,4.1-11.2,4.1-15.5c0-1.3-0.2-2.3-0.6-3.1c-0.4-0.8-0.9-1.2-1.4-1.2
			c-1.3,0-3.1,3.2-5.5,9.5S615.2,201.3,612.8,212.7z"/>
		<path class="st10" d="M657.9,232.8c-8,8.4-14,12.7-18,12.7c-2.2,0-4-1.1-5.6-3.4c-1.5-2.3-2.3-5.1-2.3-8.5
			c0-7.3,2.5-17.4,7.4-30.4l13.1-2.7h0.6l-5.1,16.1c-2.1,6.7-3.2,11.4-3.2,14.3c0,1.1,0.3,2.1,0.8,2.8s1.1,1.1,1.9,1.1
			c1.3,0,2.7-0.5,4-1.5c1.4-1,3.5-3.1,6.4-6.4L657.9,232.8L657.9,232.8z M656.9,180.4c0,8.2-3,12.4-9.1,12.4c-3,0-5.5-0.9-7.6-2.7
			c2-3,3.5-6.4,4.6-10.2c2.7,1.7,4.9,2.5,6.5,2.5C653.2,182.4,655,181.8,656.9,180.4z"/>
		<path class="st10" d="M708.5,232.8c-4.4,4.6-9.6,7.9-15.7,10.1c-2.8,8.9-6.5,15.7-10.8,20.5s-9,7.2-13.9,7.2
			c-2.7,0-4.8-0.8-6.5-2.5s-2.5-3.9-2.5-6.6c0-3.7,1.6-7,4.9-9.9c3.3-2.9,8.8-5.7,16.7-8.4l2.2-10.1c-3.3,3.7-6.2,6.4-8.5,8.2
			c-2.4,1.7-4.8,2.6-7.3,2.6c-2.8,0-5.2-1.3-7-4s-2.7-6.2-2.7-10.4c0-7,2.7-13.6,8-19.7s11-9.2,17-9.2c3.3,0,6.3,1.4,8.8,4.2
			c1.5-0.6,3.5-1.4,6-2.5l3.7-1.6h1.2c-1.3,4.1-2.4,8-3.1,11.9l-4.8,25.8c4.6-1.8,9.4-5.5,14.3-11.3L708.5,232.8L708.5,232.8z
			 M679.6,247.7c-11.1,4-16.6,8.6-16.6,13.8c0,1.5,0.5,2.8,1.4,3.8s2.1,1.5,3.5,1.5c2.5,0,4.6-1.6,6.4-4.7
			C676.2,259,677.9,254.2,679.6,247.7z M675.3,234.5c2.4,0,4.6-1.4,6.5-4.3c1.9-2.9,3.3-6.5,4.4-11c1-4.4,1.6-7.5,1.6-9.2
			c0-1.6-0.4-2.9-1.2-4s-1.8-1.6-3-1.6c-3.6,0-6.8,2.5-9.5,7.4s-4.1,9.9-4.1,15c0,2.4,0.5,4.3,1.5,5.6S673.7,234.5,675.3,234.5z"/>
		<path class="st10" d="M746.9,232.8c-4.4,4.3-8.3,7.5-11.7,9.5c-3.5,2-7.3,3.1-11.5,3.1c-4.7,0-8.4-1.5-11.3-4.5
			c-2.9-3-4.3-6.9-4.3-11.8c0-7.3,2.5-13.9,7.6-19.8s10.6-8.8,16.8-8.8c3.2,0,5.8,0.8,7.7,2.5s2.9,3.8,2.9,6.5
			c0,7.1-7.5,12.9-22.7,17.3c1.4,6.7,5,10,10.8,10c2.3,0,4.4-0.6,6.5-1.8s5.2-3.9,9.3-8.1L746.9,232.8L746.9,232.8z M745.9,193.1
			l-0.4,2c-5.1-1.2-9.5-5.3-13.1-12.1c-3,3.4-5.8,6-8.3,7.6s-6.1,3.2-10.6,4.6l0.5-2.5c6.3-4.4,11.7-10.2,16-17.2l11.1-2
			c0,5.4,0.3,9.4,0.9,12C742.5,188.1,743.8,190.6,745.9,193.1z M719.9,223.3c8.8-2.5,13.2-7,13.2-13.7c0-3.3-1.2-4.9-3.6-4.9
			c-2.3,0-4.4,1.7-6.5,5.2C721,213.3,719.9,217.8,719.9,223.3z"/>
		<path class="st10" d="M797.5,232.8c-7.9,8.4-14.7,12.6-20.4,12.6c-2.3,0-4.2-0.8-5.6-2.4s-2.1-3.8-2.1-6.5c0-3.7,1.5-9.3,4.5-16.8
			c1.6-4.1,2.4-6.6,2.4-7.7s-0.4-1.6-1.3-1.6c-0.5,0-1.1,0.2-1.9,0.7c-0.7,0.5-1.6,1.1-2.5,2c-0.9,0.8-1.8,1.8-2.9,2.9
			c-0.9,1-1.9,2.1-3,3.3l-2.9,3.4c-1.3,1.5-2.1,3.2-2.4,4.9c-0.5,2.9-0.9,5.6-1,8c-0.1,1.8-0.2,4.3-0.2,7.4l-11.4,2.7
			c-0.4-4.6-0.6-8.1-0.6-10.4c0-5.5,0.6-10.8,1.9-15.7c1.3-4.9,3.4-10.5,6.2-16.7l12.6-2.4c-2.6,7.1-4.4,12.7-5.2,16.8
			c5.6-6.3,10.1-10.6,13.4-13.1c3.3-2.4,6.3-3.6,8.8-3.6c1.8,0,3.2,0.7,4.4,2s1.8,3,1.8,5c0,3.3-1.5,8.7-4.4,16.3
			c-2,5.2-3,8.6-3,10.1c0,2.1,0.8,3.1,2.5,3.1c2.5,0,6.6-3.3,12.2-9.9L797.5,232.8L797.5,232.8L797.5,232.8z"/>
		<path class="st10" d="M836,232.8c-4.4,4.3-8.4,7.5-12.1,9.5c-3.7,2-7.5,3-11.5,3c-4.5,0-8.2-1.4-11-4.4c-2.9-2.9-4.3-6.6-4.3-11.1
			c0-7.3,2.7-14.1,8-20.3s11.1-9.3,17.3-9.3c3.1,0,5.5,0.9,7.5,2.6c1.9,1.7,2.9,3.9,2.9,6.6c0,1-0.2,1.7-0.5,2.2s-1,1-2,1.4l-6,2.8
			c-0.7,0.3-1.3,0.5-1.6,0.5c-0.5,0-0.7-0.3-0.7-1c0-0.3,0.1-1.2,0.3-2.7s0.3-2.5,0.3-2.8c0-1.5-0.3-2.7-1-3.7
			c-0.6-0.9-1.5-1.4-2.5-1.4c-2.5,0-4.8,1.9-6.9,5.6s-3.1,7.9-3.1,12.7c0,4.1,1,7.4,2.9,9.8s4.6,3.7,7.8,3.7c2.8,0,5.4-0.8,7.8-2.4
			c2.5-1.6,5.2-4,8.4-7.3L836,232.8L836,232.8z"/>
		<path class="st10" d="M861.3,232.8c-8,8.4-14,12.7-18,12.7c-2.2,0-4-1.1-5.6-3.4c-1.5-2.3-2.3-5.1-2.3-8.5
			c0-7.3,2.5-17.4,7.4-30.4l13.1-2.7h0.6l-5.2,16.1c-2.1,6.7-3.2,11.4-3.2,14.3c0,1.1,0.3,2.1,0.8,2.8s1.1,1.1,1.9,1.1
			c1.3,0,2.7-0.5,4-1.5s3.5-3.1,6.4-6.4L861.3,232.8L861.3,232.8z M860.3,180.4c0,8.2-3,12.4-9.1,12.4c-3,0-5.5-0.9-7.6-2.7
			c2-3,3.5-6.4,4.6-10.2c2.7,1.7,4.9,2.5,6.5,2.5C856.6,182.4,858.5,181.8,860.3,180.4z"/>
		<path class="st10" d="M916.3,232.8c-5.5,5.2-9.4,8.6-11.8,10.2s-4.6,2.4-6.8,2.4c-5.4,0-8-4.8-7.7-14.4c-3.4,4.9-6.6,8.5-9.5,10.9
			c-2.9,2.3-5.9,3.5-9,3.5c-3,0-5.6-1.4-7.7-4.3s-3.2-6.3-3.2-10.4c0-5.1,1.4-10.1,4.3-14.7s6.5-8.4,10.9-11.3s8.3-4.3,11.7-4.3
			c4.3,0,7.3,2,9,5.9l10.5-5.8h2.9l-4.5,15.1c-2.3,7.6-3.5,12.8-3.5,15.6c0,2.9,1,4.4,3.1,4.4c1.3,0,2.8-0.7,4.4-2.1
			c1.6-1.4,3.9-3.6,6.8-6.5L916.3,232.8L916.3,232.8z M878.6,235.7c3.4,0,6.7-2.9,9.7-8.8c3-5.9,4.6-11.3,4.6-16.2
			c0-1.9-0.4-3.4-1.3-4.5c-0.9-1.1-2-1.6-3.5-1.6c-3.4,0-6.7,2.9-9.8,8.8c-3.1,5.8-4.6,11.2-4.6,16.1c0,1.9,0.5,3.4,1.4,4.5
			S877.2,235.7,878.6,235.7z"/>
		<path class="st10" d="M674.7,290.1c-2.3,2.3-4.1,3.9-5.3,4.7s-2.3,1.2-3.3,1.2c-1.2,0-2.1-0.6-2.7-1.7s-1-2.8-1-4.9
			c-1.3,2.2-2.8,3.8-4.3,4.9c-1.6,1.1-3,1.7-4.3,1.7c-1.4,0-2.6-0.6-3.7-2s-1.6-2.8-1.6-4.6c0-3.6,1.3-7,4-10.1s5.5-4.6,8.5-4.6
			c0.8,0,1.5,0.1,2,0.4s1,0.7,1.6,1.2l3.5-14.6c2.8-0.7,4.8-1,5.8-1c0.3,0,0.5,0.1,0.5,0.4c0,0.2-0.4,1.9-1.2,5
			c-3.3,12.7-4.9,20.4-4.9,23c0,0.6,0.1,1.1,0.4,1.5c0.3,0.4,0.6,0.6,1,0.6c1,0,2.8-1.4,5.1-4L674.7,290.1L674.7,290.1z
			 M657.1,291.4c1.6,0,3.1-1.4,4.5-4c1.4-2.7,2.1-5.2,2.1-7.6c0-1-0.2-1.7-0.7-2.3c-0.4-0.6-1-0.9-1.7-0.9c-1.5,0-3,1.4-4.4,4.2
			c-1.4,2.8-2.1,5.4-2.1,7.6c0,0.9,0.2,1.6,0.6,2.1S656.3,291.4,657.1,291.4z"/>
		<path class="st10" d="M700.7,290.1c-2.6,2.5-4.5,4.1-5.6,4.8c-1.1,0.8-2.2,1.1-3.2,1.1c-2.6,0-3.8-2.3-3.6-6.8
			c-1.6,2.3-3.1,4-4.5,5.1s-2.8,1.7-4.3,1.7c-1.4,0-2.6-0.7-3.6-2s-1.5-3-1.5-4.9c0-2.4,0.7-4.8,2-7s3.1-4,5.2-5.4
			c2.1-1.4,4-2,5.5-2c2,0,3.5,0.9,4.3,2.8l5-2.8h1.4l-2.2,7.1c-1.1,3.6-1.7,6-1.7,7.4s0.5,2.1,1.5,2.1c0.6,0,1.3-0.3,2.1-1
			s1.8-1.7,3.2-3.1L700.7,290.1L700.7,290.1L700.7,290.1z M682.8,291.5c1.6,0,3.2-1.4,4.6-4.1s2.2-5.3,2.2-7.7
			c0-0.9-0.2-1.6-0.6-2.1s-1-0.8-1.6-0.8c-1.6,0-3.2,1.4-4.6,4.1c-1.5,2.8-2.2,5.3-2.2,7.6c0,0.9,0.2,1.6,0.7,2.1
			C681.6,291.2,682.2,291.5,682.8,291.5z"/>
		<path class="st10" d="M708.1,275.9c1.1-0.3,2.3-0.5,3.4-0.7s1.8-0.3,2-0.3s0.2,0.1,0.2,0.2c0,0.2-0.1,0.5-0.2,0.8
			c-0.3,0.8-0.4,1.5-0.4,2.1c0,0.8,0.5,2,1.5,3.5s1.5,2.8,1.5,4.1c0,2.5-1.2,4.9-3.6,7.2s-4.8,3.5-7.4,3.5c-1.1,0-2.1-0.3-3-0.9
			s-1.4-1.2-1.4-1.9c0-0.4,0.5-1.1,1.3-2.2c0.9-1.1,1.5-1.6,1.9-1.6c0.5,0,1,0.7,1.4,2s1.1,2,2.1,2s1.9-0.5,2.8-1.4s1.3-1.9,1.3-3
			c0-1-0.5-2.4-1.7-4.1c-1.1-1.7-1.8-3.1-2.2-4.3c-1.9,3-4.3,6.1-7.2,9.3h-0.6V288C704.1,283.7,706.8,279.7,708.1,275.9z"/>
	</g>
</g>
<defs>
	<filter id="Adobe_OpacityMaskFilter" filterUnits="userSpaceOnUse" x="167" y="630.5" width="1030" height="616">
		<feColorMatrix  type="matrix" values="1 0 0 0 0  0 1 0 0 0  0 0 1 0 0  0 0 0 1 0"/>
	</filter>
</defs>
<mask maskUnits="userSpaceOnUse" x="167" y="630.5" width="1030" height="616" id="SVGID_8_">
	<g class="st11">
		<linearGradient id="SVGID_9_" gradientUnits="userSpaceOnUse" x1="683" y1="628.2198" x2="683" y2="1354.5494">
			<stop  offset="0" style="stop-color:#1A1A1A"/>
			<stop  offset="0.17" style="stop-color:#000000"/>
		</linearGradient>
		<rect y="628.2" class="st12" width="1366" height="726.3"/>
	</g>
</mask>
<g class="st13">
	
		<linearGradient id="SVGID_10_" gradientUnits="userSpaceOnUse" x1="522.2242" y1="-230.3671" x2="830.3758" y2="303.367" gradientTransform="matrix(1 0 0 -1 0 975)">
		<stop  offset="0" style="stop-color:#00FF00"/>
		<stop  offset="0.2203" style="stop-color:#00AAF7"/>
		<stop  offset="0.6015" style="stop-color:#170C66"/>
		<stop  offset="1" style="stop-color:#FF09DE"/>
	</linearGradient>
	<path class="st14" d="M676.3,630.5c-82.3,0-159.6,32-217.8,90.2c-58.2,58.2-90.2,135.5-90.2,217.8s32,159.6,90.2,217.8
		s135.5,90.2,217.8,90.2s159.6-32,217.8-90.2c58.2-58.2,90.2-135.5,90.2-217.8s-32-159.6-90.2-217.8
		C835.9,662.5,758.6,630.5,676.3,630.5z M676.3,1205.7c-147.3,0-267.2-119.9-267.2-267.2S529,671.3,676.3,671.3
		s267.2,119.9,267.2,267.2S823.6,1205.7,676.3,1205.7z"/>
	<g>
		<g class="st15">
			<g class="st16">
				<g class="st16">
					
						<image style="overflow:visible;" width="1034" height="258" xlink:href="85B57C71.png"  transform="matrix(0.9961 0 0 -0.9961 167.0038 965.2957)">
					</image>
				</g>
			</g>
		</g>
		<g>
			<g>
				<path class="st1" d="M332.4,768.6l-2.1-23.7c-13-3.9-27.2-5.9-42.6-5.9c-36.4,0-63.8,10-82.2,30c-18.3,20-27.5,44.4-27.5,73.2
					c0,30.2,10.2,56.2,30.7,78.1s47.9,32.8,82.5,32.8c9.5,0,19.6-1.4,30.2-4.3l-4.4-25.3c-12.2,3.8-23,5.7-32.6,5.7
					c-25.6,0-45.1-8-58.3-23.8s-19.9-35.3-19.9-58.3c0-23.4,7.6-43.5,22.9-60.2s36.3-25.1,63.3-25.1
					C302.6,761.7,316,764,332.4,768.6z"/>
				<path class="st1" d="M551.2,849.9c0-34.2-10-61.6-30-82.1S478,737,451.8,737c-25.2,0-47.3,9.4-66.4,28.2
					c-19,18.8-28.5,44.2-28.5,76.2c0,34.6,10,62.1,30,82.4c20,20.3,43.2,30.4,69.4,30.4c25.2,0,47.3-9.4,66.4-28.2
					C541.7,907.3,551.2,881.9,551.2,849.9z M523,846.3c0,27.3-7.2,48.5-21.5,63.5c-14.4,15-30.9,22.5-49.7,22.5
					c-17.4,0-32.8-7.9-46.4-23.7S385,871.7,385,845.3c0-27.4,7.2-48.7,21.7-63.6s31-22.5,49.7-22.5c17.4,0,32.8,8,46.3,24
					S523,820.2,523,846.3z"/>
				<path class="st1" d="M627,743.3h-30.2c1.6,34.3,2.4,70.6,2.4,108.7c0,37.5-0.8,70.2-2.4,98.2H627c-1.5-28.9-2.2-61.7-2.2-98.2
					C624.8,813.6,625.5,777.4,627,743.3z"/>
				<path class="st1" d="M807.6,796.8c0-39.2-27.3-58.8-81.8-58.8c-19.9,0-37.6,2.3-53.1,6.8l5.6,25c17.8-6.2,34.7-9.2,50.7-9.2
					c36,0,54,10.2,54,30.5c0,10.3-4.7,19.1-14,26.4c-6.3,4.9-18.5,11.4-36.9,19.5c-19.3,8.6-32.8,16.5-40.5,23.7
					c-10.7,10-16,22.5-16,37.5c0,15.7,5.5,28.5,16.4,38.3c12.2,11,29.4,16.5,51.7,16.5c25.2,0,42.5-1.6,51.8-4.9l-3.8-25.3
					c-16.1,5.1-33.2,7.6-51.3,7.6c-27.2,0-40.8-9.1-40.8-27.3c0-8.8,3.9-16.2,11.8-22.1c5.1-3.7,16.3-9.3,33.7-16.8
					c19.8-8.6,34.1-16.7,42.9-24.5C800.9,828.1,807.6,813.8,807.6,796.8z"/>
				<path class="st1" d="M1022.1,743.3h-33.5c0,7.1-6.7,29.4-20,66.9h-91.7c-13.1-37-19.7-59.3-19.7-66.9H825
					c0,3.9,13.7,37.8,41,101.6s41,98.9,41,105.3h36.9c0-6.3,13-40.8,39.1-103.8C1009.1,783.5,1022.1,749.1,1022.1,743.3z M961.2,831
					c-24.9,62.2-37.3,95.2-37.3,99.2h-1.8c0-3.3-12.9-36.3-38.6-99.2H961.2z"/>
				<path class="st1" d="M1174.5,796.8c0-39.2-27.3-58.8-81.8-58.8c-19.9,0-37.6,2.3-53.1,6.8l5.6,25c17.8-6.2,34.7-9.2,50.7-9.2
					c36,0,54,10.2,54,30.5c0,10.3-4.7,19.1-14,26.4c-6.3,4.9-18.5,11.4-36.9,19.5c-19.3,8.6-32.8,16.5-40.5,23.7
					c-10.7,10-16.1,22.5-16.1,37.5c0,15.7,5.5,28.5,16.4,38.3c12.2,11,29.4,16.5,51.7,16.5c25.2,0,42.5-1.6,51.8-4.9l-3.8-25.3
					c-16.1,5.1-33.2,7.6-51.3,7.6c-27.2,0-40.8-9.1-40.8-27.3c0-8.8,3.9-16.2,11.8-22.1c5.1-3.7,16.3-9.3,33.7-16.8
					c19.8-8.6,34.1-16.7,42.9-24.5C1167.9,828.1,1174.5,813.8,1174.5,796.8z"/>
			</g>
			<g>
				<path class="st2" d="M332.4,768.6l-2.1-23.7c-13-3.9-27.2-5.9-42.6-5.9c-36.4,0-63.8,10-82.2,30c-18.3,20-27.5,44.4-27.5,73.2
					c0,30.2,10.2,56.2,30.7,78.1s47.9,32.8,82.5,32.8c9.5,0,19.6-1.4,30.2-4.3l-4.4-25.3c-12.2,3.8-23,5.7-32.6,5.7
					c-25.6,0-45.1-8-58.3-23.8s-19.9-35.3-19.9-58.3c0-23.4,7.6-43.5,22.9-60.2s36.3-25.1,63.3-25.1
					C302.6,761.7,316,764,332.4,768.6z"/>
				<path class="st2" d="M551.2,849.9c0-34.2-10-61.6-30-82.1S478,737,451.8,737c-25.2,0-47.3,9.4-66.4,28.2
					c-19,18.8-28.5,44.2-28.5,76.2c0,34.6,10,62.1,30,82.4c20,20.3,43.2,30.4,69.4,30.4c25.2,0,47.3-9.4,66.4-28.2
					C541.7,907.3,551.2,881.9,551.2,849.9z M523,846.3c0,27.3-7.2,48.5-21.5,63.5c-14.4,15-30.9,22.5-49.7,22.5
					c-17.4,0-32.8-7.9-46.4-23.7S385,871.7,385,845.3c0-27.4,7.2-48.7,21.7-63.6s31-22.5,49.7-22.5c17.4,0,32.8,8,46.3,24
					S523,820.2,523,846.3z"/>
				<path class="st2" d="M627,743.3h-30.2c1.6,34.3,2.4,70.6,2.4,108.7c0,37.5-0.8,70.2-2.4,98.2H627c-1.5-28.9-2.2-61.7-2.2-98.2
					C624.8,813.6,625.5,777.4,627,743.3z"/>
				<path class="st2" d="M807.6,796.8c0-39.2-27.3-58.8-81.8-58.8c-19.9,0-37.6,2.3-53.1,6.8l5.6,25c17.8-6.2,34.7-9.2,50.7-9.2
					c36,0,54,10.2,54,30.5c0,10.3-4.7,19.1-14,26.4c-6.3,4.9-18.5,11.4-36.9,19.5c-19.3,8.6-32.8,16.5-40.5,23.7
					c-10.7,10-16,22.5-16,37.5c0,15.7,5.5,28.5,16.4,38.3c12.2,11,29.4,16.5,51.7,16.5c25.2,0,42.5-1.6,51.8-4.9l-3.8-25.3
					c-16.1,5.1-33.2,7.6-51.3,7.6c-27.2,0-40.8-9.1-40.8-27.3c0-8.8,3.9-16.2,11.8-22.1c5.1-3.7,16.3-9.3,33.7-16.8
					c19.8-8.6,34.1-16.7,42.9-24.5C800.9,828.1,807.6,813.8,807.6,796.8z"/>
				<path class="st2" d="M1022.1,743.3h-33.5c0,7.1-6.7,29.4-20,66.9h-91.7c-13.1-37-19.7-59.3-19.7-66.9H825
					c0,3.9,13.7,37.8,41,101.6s41,98.9,41,105.3h36.9c0-6.3,13-40.8,39.1-103.8C1009.1,783.5,1022.1,749.1,1022.1,743.3z M961.2,831
					c-24.9,62.2-37.3,95.2-37.3,99.2h-1.8c0-3.3-12.9-36.3-38.6-99.2H961.2z"/>
				<path class="st2" d="M1174.5,796.8c0-39.2-27.3-58.8-81.8-58.8c-19.9,0-37.6,2.3-53.1,6.8l5.6,25c17.8-6.2,34.7-9.2,50.7-9.2
					c36,0,54,10.2,54,30.5c0,10.3-4.7,19.1-14,26.4c-6.3,4.9-18.5,11.4-36.9,19.5c-19.3,8.6-32.8,16.5-40.5,23.7
					c-10.7,10-16.1,22.5-16.1,37.5c0,15.7,5.5,28.5,16.4,38.3c12.2,11,29.4,16.5,51.7,16.5c25.2,0,42.5-1.6,51.8-4.9l-3.8-25.3
					c-16.1,5.1-33.2,7.6-51.3,7.6c-27.2,0-40.8-9.1-40.8-27.3c0-8.8,3.9-16.2,11.8-22.1c5.1-3.7,16.3-9.3,33.7-16.8
					c19.8-8.6,34.1-16.7,42.9-24.5C1167.9,828.1,1174.5,813.8,1174.5,796.8z"/>
			</g>
			<g>
				<g transform="matrix(1 0 0 1 0 0)" class="st17">
					<g class="st16">
						<g class="st16">
							
								<image style="overflow:visible;" width="1010" height="236" xlink:href="85B57C73.png"  transform="matrix(0.9958 0 0 -0.9958 176.0718 960.3638)">
							</image>
						</g>
					</g>
				</g>
				<g>
					
						<radialGradient id="SVGID_11_" cx="676.295" cy="129.2827" r="360.5496" gradientTransform="matrix(1 0 0 -1 0 975)" gradientUnits="userSpaceOnUse">
						<stop  offset="0" style="stop-color:#EFEEED"/>
						<stop  offset="0" style="stop-color:#E0DFDE"/>
						<stop  offset="0" style="stop-color:#B9B8B8"/>
						<stop  offset="0" style="stop-color:#7B7A7A"/>
						<stop  offset="0" style="stop-color:#3B3B3B"/>
						<stop  offset="0.2981" style="stop-color:#2C2C2D"/>
						<stop  offset="0.5225" style="stop-color:#1E1E1F"/>
						<stop  offset="0.7212" style="stop-color:#151515"/>
						<stop  offset="1" style="stop-color:#000000"/>
					</radialGradient>
					<path class="st18" d="M332.4,768.6l-2.1-23.7c-13-3.9-27.2-5.9-42.6-5.9c-36.4,0-63.8,10-82.2,30c-18.3,20-27.5,44.4-27.5,73.2
						c0,30.2,10.2,56.2,30.7,78.1s47.9,32.8,82.5,32.8c9.5,0,19.6-1.4,30.2-4.3l-4.4-25.3c-12.2,3.8-23,5.7-32.6,5.7
						c-25.6,0-45.1-8-58.3-23.8s-19.9-35.3-19.9-58.3c0-23.4,7.6-43.5,22.9-60.2s36.3-25.1,63.3-25.1
						C302.6,761.7,316,764,332.4,768.6z"/>
					
						<radialGradient id="SVGID_12_" cx="676.295" cy="129.4" r="360.7167" gradientTransform="matrix(1 0 0 -1 0 975)" gradientUnits="userSpaceOnUse">
						<stop  offset="0" style="stop-color:#EFEEED"/>
						<stop  offset="0" style="stop-color:#E0DFDE"/>
						<stop  offset="0" style="stop-color:#B9B8B8"/>
						<stop  offset="0" style="stop-color:#7B7A7A"/>
						<stop  offset="0" style="stop-color:#3B3B3B"/>
						<stop  offset="0.2981" style="stop-color:#2C2C2D"/>
						<stop  offset="0.5225" style="stop-color:#1E1E1F"/>
						<stop  offset="0.7212" style="stop-color:#151515"/>
						<stop  offset="1" style="stop-color:#000000"/>
					</radialGradient>
					<path class="st19" d="M551.2,849.9c0-34.2-10-61.6-30-82.1S478,737,451.8,737c-25.2,0-47.3,9.4-66.4,28.2
						c-19,18.8-28.5,44.2-28.5,76.2c0,34.6,10,62.1,30,82.4c20,20.3,43.2,30.4,69.4,30.4c25.2,0,47.3-9.4,66.4-28.2
						C541.7,907.3,551.2,881.9,551.2,849.9z M523,846.3c0,27.3-7.2,48.5-21.5,63.5c-14.4,15-30.9,22.5-49.7,22.5
						c-17.4,0-32.8-7.9-46.4-23.7S385,871.7,385,845.3c0-27.4,7.2-48.7,21.7-63.6s31-22.5,49.7-22.5c17.4,0,32.8,8,46.3,24
						S523,820.2,523,846.3z"/>
					
						<radialGradient id="SVGID_13_" cx="676.295" cy="129.2827" r="360.5496" gradientTransform="matrix(1 0 0 -1 0 975)" gradientUnits="userSpaceOnUse">
						<stop  offset="0" style="stop-color:#EFEEED"/>
						<stop  offset="0" style="stop-color:#E0DFDE"/>
						<stop  offset="0" style="stop-color:#B9B8B8"/>
						<stop  offset="0" style="stop-color:#7B7A7A"/>
						<stop  offset="0" style="stop-color:#3B3B3B"/>
						<stop  offset="0.2981" style="stop-color:#2C2C2D"/>
						<stop  offset="0.5225" style="stop-color:#1E1E1F"/>
						<stop  offset="0.7212" style="stop-color:#151515"/>
						<stop  offset="1" style="stop-color:#000000"/>
					</radialGradient>
					<path class="st20" d="M627,743.3h-30.2c1.6,34.3,2.4,70.6,2.4,108.7c0,37.5-0.8,70.2-2.4,98.2H627c-1.5-28.9-2.2-61.7-2.2-98.2
						C624.8,813.6,625.5,777.4,627,743.3z"/>
					
						<radialGradient id="SVGID_14_" cx="676.295" cy="129.5" r="360.8422" gradientTransform="matrix(1 0 0 -1 0 975)" gradientUnits="userSpaceOnUse">
						<stop  offset="0" style="stop-color:#EFEEED"/>
						<stop  offset="0" style="stop-color:#E0DFDE"/>
						<stop  offset="0" style="stop-color:#B9B8B8"/>
						<stop  offset="0" style="stop-color:#7B7A7A"/>
						<stop  offset="0" style="stop-color:#3B3B3B"/>
						<stop  offset="0.2981" style="stop-color:#2C2C2D"/>
						<stop  offset="0.5225" style="stop-color:#1E1E1F"/>
						<stop  offset="0.7212" style="stop-color:#151515"/>
						<stop  offset="1" style="stop-color:#000000"/>
					</radialGradient>
					<path class="st21" d="M807.6,796.8c0-39.2-27.3-58.8-81.8-58.8c-19.9,0-37.6,2.3-53.1,6.8l5.6,25c17.8-6.2,34.7-9.2,50.7-9.2
						c36,0,54,10.2,54,30.5c0,10.3-4.7,19.1-14,26.4c-6.3,4.9-18.5,11.4-36.9,19.5c-19.3,8.6-32.8,16.5-40.5,23.7
						c-10.7,10-16,22.5-16,37.5c0,15.7,5.5,28.5,16.4,38.3c12.2,11,29.4,16.5,51.7,16.5c25.2,0,42.5-1.6,51.8-4.9l-3.8-25.3
						c-16.1,5.1-33.2,7.6-51.3,7.6c-27.2,0-40.8-9.1-40.8-27.3c0-8.8,3.9-16.2,11.8-22.1c5.1-3.7,16.3-9.3,33.7-16.8
						c19.8-8.6,34.1-16.7,42.9-24.5C800.9,828.1,807.6,813.8,807.6,796.8z"/>
					
						<radialGradient id="SVGID_15_" cx="676.295" cy="129.2827" r="360.5496" gradientTransform="matrix(1 0 0 -1 0 975)" gradientUnits="userSpaceOnUse">
						<stop  offset="0" style="stop-color:#EFEEED"/>
						<stop  offset="0" style="stop-color:#E0DFDE"/>
						<stop  offset="0" style="stop-color:#B9B8B8"/>
						<stop  offset="0" style="stop-color:#7B7A7A"/>
						<stop  offset="0" style="stop-color:#3B3B3B"/>
						<stop  offset="0.2981" style="stop-color:#2C2C2D"/>
						<stop  offset="0.5225" style="stop-color:#1E1E1F"/>
						<stop  offset="0.7212" style="stop-color:#151515"/>
						<stop  offset="1" style="stop-color:#000000"/>
					</radialGradient>
					<path class="st22" d="M1022.1,743.3h-33.5c0,7.1-6.7,29.4-20,66.9h-91.7c-13.1-37-19.7-59.3-19.7-66.9H825
						c0,3.9,13.7,37.8,41,101.6s41,98.9,41,105.3h36.9c0-6.3,13-40.8,39.1-103.8C1009.1,783.5,1022.1,749.1,1022.1,743.3z
						 M961.2,831c-24.9,62.2-37.3,95.2-37.3,99.2h-1.8c0-3.3-12.9-36.3-38.6-99.2H961.2z"/>
					
						<radialGradient id="SVGID_16_" cx="676.295" cy="129.5" r="360.3918" gradientTransform="matrix(1 0 0 -1 0 975)" gradientUnits="userSpaceOnUse">
						<stop  offset="0" style="stop-color:#EFEEED"/>
						<stop  offset="0" style="stop-color:#E0DFDE"/>
						<stop  offset="0" style="stop-color:#B9B8B8"/>
						<stop  offset="0" style="stop-color:#7B7A7A"/>
						<stop  offset="0" style="stop-color:#3B3B3B"/>
						<stop  offset="0.2981" style="stop-color:#2C2C2D"/>
						<stop  offset="0.5225" style="stop-color:#1E1E1F"/>
						<stop  offset="0.7212" style="stop-color:#151515"/>
						<stop  offset="1" style="stop-color:#000000"/>
					</radialGradient>
					<path class="st23" d="M1174.5,796.8c0-39.2-27.3-58.8-81.8-58.8c-19.9,0-37.6,2.3-53.1,6.8l5.6,25c17.8-6.2,34.7-9.2,50.7-9.2
						c36,0,54,10.2,54,30.5c0,10.3-4.7,19.1-14,26.4c-6.3,4.9-18.5,11.4-36.9,19.5c-19.3,8.6-32.8,16.5-40.5,23.7
						c-10.7,10-16.1,22.5-16.1,37.5c0,15.7,5.5,28.5,16.4,38.3c12.2,11,29.4,16.5,51.7,16.5c25.2,0,42.5-1.6,51.8-4.9l-3.8-25.3
						c-16.1,5.1-33.2,7.6-51.3,7.6c-27.2,0-40.8-9.1-40.8-27.3c0-8.8,3.9-16.2,11.8-22.1c5.1-3.7,16.3-9.3,33.7-16.8
						c19.8-8.6,34.1-16.7,42.9-24.5C1167.9,828.1,1174.5,813.8,1174.5,796.8z"/>
				</g>
			</g>
			<g>
				<path class="st9" d="M332.4,768.6l-2.1-23.7c-13-3.9-27.2-5.9-42.6-5.9c-36.4,0-63.8,10-82.2,30c-18.3,20-27.5,44.4-27.5,73.2
					c0,30.2,10.2,56.2,30.7,78.1s47.9,32.8,82.5,32.8c9.5,0,19.6-1.4,30.2-4.3l-4.4-25.3c-12.2,3.8-23,5.7-32.6,5.7
					c-25.6,0-45.1-8-58.3-23.8s-19.9-35.3-19.9-58.3c0-23.4,7.6-43.5,22.9-60.2s36.3-25.1,63.3-25.1
					C302.6,761.7,316,764,332.4,768.6z"/>
				<path class="st9" d="M551.2,849.9c0-34.2-10-61.6-30-82.1S478,737,451.8,737c-25.2,0-47.3,9.4-66.4,28.2
					c-19,18.8-28.5,44.2-28.5,76.2c0,34.6,10,62.1,30,82.4c20,20.3,43.2,30.4,69.4,30.4c25.2,0,47.3-9.4,66.4-28.2
					C541.7,907.3,551.2,881.9,551.2,849.9z M523,846.3c0,27.3-7.2,48.5-21.5,63.5c-14.4,15-30.9,22.5-49.7,22.5
					c-17.4,0-32.8-7.9-46.4-23.7S385,871.7,385,845.3c0-27.4,7.2-48.7,21.7-63.6s31-22.5,49.7-22.5c17.4,0,32.8,8,46.3,24
					S523,820.2,523,846.3z"/>
				<path class="st9" d="M627,743.3h-30.2c1.6,34.3,2.4,70.6,2.4,108.7c0,37.5-0.8,70.2-2.4,98.2H627c-1.5-28.9-2.2-61.7-2.2-98.2
					C624.8,813.6,625.5,777.4,627,743.3z"/>
				<path class="st9" d="M807.6,796.8c0-39.2-27.3-58.8-81.8-58.8c-19.9,0-37.6,2.3-53.1,6.8l5.6,25c17.8-6.2,34.7-9.2,50.7-9.2
					c36,0,54,10.2,54,30.5c0,10.3-4.7,19.1-14,26.4c-6.3,4.9-18.5,11.4-36.9,19.5c-19.3,8.6-32.8,16.5-40.5,23.7
					c-10.7,10-16,22.5-16,37.5c0,15.7,5.5,28.5,16.4,38.3c12.2,11,29.4,16.5,51.7,16.5c25.2,0,42.5-1.6,51.8-4.9l-3.8-25.3
					c-16.1,5.1-33.2,7.6-51.3,7.6c-27.2,0-40.8-9.1-40.8-27.3c0-8.8,3.9-16.2,11.8-22.1c5.1-3.7,16.3-9.3,33.7-16.8
					c19.8-8.6,34.1-16.7,42.9-24.5C800.9,828.1,807.6,813.8,807.6,796.8z"/>
				<path class="st9" d="M1022.1,743.3h-33.5c0,7.1-6.7,29.4-20,66.9h-91.7c-13.1-37-19.7-59.3-19.7-66.9H825
					c0,3.9,13.7,37.8,41,101.6s41,98.9,41,105.3h36.9c0-6.3,13-40.8,39.1-103.8C1009.1,783.5,1022.1,749.1,1022.1,743.3z M961.2,831
					c-24.9,62.2-37.3,95.2-37.3,99.2h-1.8c0-3.3-12.9-36.3-38.6-99.2H961.2z"/>
				<path class="st9" d="M1174.5,796.8c0-39.2-27.3-58.8-81.8-58.8c-19.9,0-37.6,2.3-53.1,6.8l5.6,25c17.8-6.2,34.7-9.2,50.7-9.2
					c36,0,54,10.2,54,30.5c0,10.3-4.7,19.1-14,26.4c-6.3,4.9-18.5,11.4-36.9,19.5c-19.3,8.6-32.8,16.5-40.5,23.7
					c-10.7,10-16.1,22.5-16.1,37.5c0,15.7,5.5,28.5,16.4,38.3c12.2,11,29.4,16.5,51.7,16.5c25.2,0,42.5-1.6,51.8-4.9l-3.8-25.3
					c-16.1,5.1-33.2,7.6-51.3,7.6c-27.2,0-40.8-9.1-40.8-27.3c0-8.8,3.9-16.2,11.8-22.1c5.1-3.7,16.3-9.3,33.7-16.8
					c19.8-8.6,34.1-16.7,42.9-24.5C1167.9,828.1,1174.5,813.8,1174.5,796.8z"/>
			</g>
		</g>
	</g>
	<g>
		<path class="st24" d="M473.1,1017.7c-8-8.5-14-12.7-18-12.7c-2.2,0-4,1.1-5.6,3.4c-1.5,2.3-2.3,5.1-2.3,8.5
			c0,7.3,2.5,17.4,7.4,30.4l13.1,2.7h0.6l-5.1-16.1c-2.1-6.7-3.2-11.4-3.2-14.3c0-1.1,0.3-2,0.8-2.8s1.1-1.1,1.9-1.1
			c1.3,0,2.7,0.5,4,1.5c1.4,1,3.5,3.1,6.4,6.4L473.1,1017.7L473.1,1017.7z M472.1,1070.1c0-8.2-3-12.4-9.1-12.4
			c-3,0-5.5,0.9-7.6,2.7c2,3,3.5,6.4,4.6,10.2c2.7-1.7,4.9-2.5,6.5-2.5C468.4,1068.1,470.2,1068.8,472.1,1070.1z"/>
		<path class="st24" d="M523.7,1017.7c-7.9-8.4-14.7-12.6-20.4-12.6c-2.3,0-4.1,0.8-5.6,2.4s-2.1,3.8-2.1,6.5
			c0,3.7,1.5,9.3,4.5,16.8c1.6,4.1,2.4,6.6,2.4,7.7s-0.4,1.7-1.3,1.7c-0.5,0-1.1-0.2-1.9-0.7c-0.7-0.5-1.6-1.2-2.5-2
			s-1.8-1.8-2.9-2.9c-0.9-1-1.9-2.1-3-3.3l-2.9-3.3c-1.3-1.5-2.1-3.2-2.4-4.9c-0.5-2.9-0.9-5.6-1-8c-0.1-1.8-0.1-4.3-0.1-7.4
			l-11.4-2.7c-0.4,4.6-0.6,8.1-0.6,10.3c0,5.5,0.6,10.8,1.9,15.7c1.3,4.9,3.4,10.5,6.2,16.7l12.6,2.4c-2.6-7.1-4.4-12.7-5.2-16.8
			c5.6,6.3,10.1,10.6,13.4,13.1c3.3,2.4,6.3,3.6,8.8,3.6c1.7,0,3.2-0.7,4.4-2s1.8-3,1.8-5c0-3.3-1.5-8.7-4.4-16.3
			c-2-5.2-3-8.5-3-10.1c0-2.1,0.8-3.1,2.5-3.1c2.5,0,6.6,3.3,12.2,9.9V1017.7L523.7,1017.7L523.7,1017.7z"/>
		<path class="st24" d="M553.3,1017.7c-4.3-4.3-8.1-7.5-11.2-9.5s-6.2-3.1-9-3.1c-3,0-5.3,1.2-7.2,3.7c-1.8,2.5-2.8,5.8-2.8,9.8
			c0,3.6,0.9,8.3,2.6,14.1l2.2,7.8l-4-0.2l1.7,8.1l4.9,0.2l4.8,16.1l13.8,2.8l-5.3-17.9l7.3,0.4l-1.7-7.9l-8-0.6L538,1030
			c-1.2-4-1.8-7.2-1.8-9.6c0-1.6,0.4-2.9,1.2-3.9s1.8-1.5,3.1-1.5c1.8,0,3.5,0.6,5.2,1.7c1.7,1.1,4.3,3.4,7.6,7V1017.7L553.3,1017.7
			z"/>
		<path class="st24" d="M591.8,1017.7c-4.4-4.3-8.3-7.5-11.7-9.5s-7.3-3.1-11.5-3.1c-4.7,0-8.4,1.5-11.3,4.5
			c-2.9,3-4.3,6.9-4.3,11.8c0,7.3,2.5,13.9,7.6,19.7s10.6,8.8,16.8,8.8c3.2,0,5.8-0.8,7.7-2.5s2.9-3.8,2.9-6.5
			c0-7.1-7.5-12.9-22.7-17.3c1.4-6.7,5-10,10.8-10c2.3,0,4.4,0.6,6.5,1.8s5.2,3.9,9.3,8.1L591.8,1017.7L591.8,1017.7z M564.8,1027.2
			c8.8,2.5,13.2,7,13.2,13.7c0,3.3-1.2,4.9-3.6,4.9c-2.3,0-4.4-1.7-6.5-5.2C565.8,1037.2,564.8,1032.7,564.8,1027.2z"/>
		<path class="st24" d="M625.8,1017.7c-4.7-4.3-8.8-7.5-12.3-9.5s-6.9-3.1-10.1-3.1c-3.7,0-6.6,1.4-8.9,4.3
			c-2.3,2.8-3.4,6.7-3.4,11.5c0,7.2,1.6,15.9,4.7,26c3.1,10.1,6.9,19.4,11.4,27.9l13.1,4.8c0.4,0.1,0.7,0.2,0.9,0.2
			c1,0,1.8-0.7,2.5-2.2c0.6-1.5,1-3.4,1-5.9c0-7-1.6-13.8-4.8-20.3c-3.2-6.6-8.3-13.6-15.1-21c-0.3-3.6-0.4-6-0.4-7.4
			c0-3,0.5-5.4,1.7-7.1c1.1-1.8,2.6-2.6,4.4-2.6c1.8,0,3.8,0.7,5.9,2c2.1,1.3,5.3,4.1,9.6,8.3L625.8,1017.7L625.8,1017.7
			L625.8,1017.7z M606.1,1037.8c4.4,4.8,7.9,10.3,10.6,16.3c2.7,6,4.1,11.2,4.1,15.5c0,1.3-0.2,2.3-0.6,3.1
			c-0.4,0.8-0.9,1.2-1.4,1.2c-1.3,0-3.1-3.2-5.5-9.5C610.8,1058,608.5,1049.2,606.1,1037.8z"/>
		<path class="st24" d="M651.2,1017.7c-8-8.5-14-12.7-18-12.7c-2.2,0-4,1.1-5.6,3.4c-1.5,2.3-2.3,5.1-2.3,8.5
			c0,7.3,2.5,17.4,7.4,30.4l13.1,2.7h0.6l-5.2-16.1c-2.1-6.7-3.2-11.4-3.2-14.3c0-1.1,0.3-2,0.8-2.8s1.1-1.1,1.9-1.1
			c1.3,0,2.7,0.5,4,1.5c1.4,1,3.5,3.1,6.4,6.4L651.2,1017.7L651.2,1017.7z M650.2,1070.1c0-8.2-3-12.4-9.1-12.4
			c-3,0-5.5,0.9-7.6,2.7c2,3,3.5,6.4,4.6,10.2c2.7-1.7,4.9-2.5,6.5-2.5C646.5,1068.1,648.3,1068.8,650.2,1070.1z"/>
		<path class="st24" d="M701.8,1017.7c-4.4-4.6-9.6-7.9-15.7-10.1c-2.8-8.9-6.5-15.7-10.8-20.5s-9-7.2-13.9-7.2
			c-2.7,0-4.8,0.8-6.5,2.5s-2.5,3.9-2.5,6.6c0,3.7,1.6,7,4.9,9.9c3.3,2.9,8.8,5.7,16.7,8.5l2.2,10.2c-3.3-3.7-6.2-6.4-8.5-8.2
			c-2.4-1.7-4.8-2.6-7.3-2.6c-2.8,0-5.2,1.3-7,4s-2.7,6.2-2.7,10.5c0,7,2.7,13.6,8,19.7s11,9.2,17,9.2c3.3,0,6.3-1.4,8.8-4.2
			c1.5,0.6,3.5,1.4,6,2.5l3.7,1.7h1.2c-1.3-4.1-2.4-8-3.1-11.8l-4.8-25.8c4.6,1.8,9.4,5.5,14.3,11.3L701.8,1017.7L701.8,1017.7
			L701.8,1017.7z M672.9,1002.8c-11.1-4-16.6-8.6-16.6-13.8c0-1.5,0.5-2.8,1.4-3.8s2.1-1.5,3.5-1.5c2.5,0,4.6,1.6,6.4,4.7
			C669.5,991.5,671.2,996.3,672.9,1002.8z M668.6,1016c2.4,0,4.6,1.4,6.5,4.3c1.9,2.9,3.3,6.5,4.4,11c1,4.4,1.6,7.5,1.6,9.2
			c0,1.6-0.4,2.9-1.2,4s-1.8,1.6-3,1.6c-3.6,0-6.8-2.5-9.5-7.4s-4.1-9.9-4.1-15c0-2.4,0.5-4.3,1.5-5.6S667,1016,668.6,1016z"/>
		<path class="st24" d="M740.2,1017.7c-4.4-4.3-8.3-7.5-11.7-9.5c-3.5-2-7.3-3.1-11.5-3.1c-4.7,0-8.4,1.5-11.3,4.5
			c-2.9,3-4.3,6.9-4.3,11.8c0,7.3,2.5,13.9,7.6,19.7s10.6,8.8,16.8,8.8c3.2,0,5.8-0.8,7.7-2.5s2.9-3.8,2.9-6.5
			c0-7.1-7.5-12.9-22.7-17.3c1.4-6.7,5-10,10.8-10c2.3,0,4.4,0.6,6.5,1.8s5.2,3.9,9.3,8.1L740.2,1017.7L740.2,1017.7z M739.2,1057.4
			l-0.4-2c-5.1,1.2-9.5,5.3-13.1,12.1c-3-3.4-5.8-6-8.3-7.7s-6.1-3.2-10.6-4.6l0.5,2.5c6.3,4.4,11.7,10.2,16,17.2l11.1,2
			c0-5.4,0.3-9.4,0.9-12C735.8,1062.4,737.1,1059.8,739.2,1057.4z M713.2,1027.2c8.8,2.5,13.2,7,13.2,13.7c0,3.3-1.2,4.9-3.6,4.9
			c-2.3,0-4.4-1.7-6.5-5.2C714.3,1037.2,713.2,1032.7,713.2,1027.2z"/>
		<path class="st24" d="M790.8,1017.7c-7.9-8.4-14.7-12.6-20.4-12.6c-2.3,0-4.2,0.8-5.6,2.4s-2.1,3.8-2.1,6.5
			c0,3.7,1.5,9.3,4.5,16.8c1.6,4.1,2.4,6.6,2.4,7.7s-0.4,1.7-1.3,1.7c-0.5,0-1.1-0.2-1.9-0.7c-0.7-0.5-1.6-1.2-2.5-2
			s-1.8-1.8-2.9-2.9c-0.9-1-1.9-2.1-3-3.3l-2.9-3.3c-1.3-1.5-2.1-3.2-2.4-4.9c-0.5-2.9-0.9-5.6-1-8c-0.1-1.8-0.2-4.3-0.2-7.4
			l-11.4-2.7c-0.4,4.6-0.6,8.1-0.6,10.3c0,5.5,0.6,10.8,1.9,15.7c1.3,4.9,3.4,10.5,6.2,16.7l12.6,2.4c-2.6-7.1-4.4-12.7-5.2-16.8
			c5.6,6.3,10.1,10.6,13.4,13.1c3.3,2.4,6.3,3.6,8.8,3.6c1.8,0,3.2-0.7,4.4-2s1.8-3,1.8-5c0-3.3-1.5-8.7-4.4-16.3
			c-2-5.2-3-8.5-3-10.1c0-2.1,0.8-3.1,2.5-3.1c2.5,0,6.6,3.3,12.2,9.9L790.8,1017.7L790.8,1017.7L790.8,1017.7z"/>
		<path class="st24" d="M829.3,1017.7c-4.4-4.3-8.4-7.5-12.1-9.5c-3.7-2-7.5-3-11.5-3c-4.5,0-8.2,1.5-11,4.3
			c-2.9,2.9-4.3,6.6-4.3,11c0,7.3,2.7,14.1,8,20.3s11.1,9.3,17.3,9.3c3.1,0,5.5-0.8,7.5-2.6c1.9-1.7,2.9-3.9,2.9-6.6
			c0-1-0.2-1.7-0.5-2.2s-1-1-2-1.4l-6-2.8c-0.7-0.3-1.3-0.5-1.6-0.5c-0.5,0-0.7,0.3-0.7,1c0,0.3,0.1,1.2,0.3,2.7s0.3,2.5,0.3,2.8
			c0,1.5-0.3,2.7-1,3.7c-0.6,0.9-1.5,1.4-2.5,1.4c-2.5,0-4.8-1.8-6.9-5.6c-2.1-3.7-3.1-7.9-3.1-12.7c0-4.1,1-7.3,2.9-9.8
			s4.6-3.7,7.8-3.7c2.8,0,5.4,0.8,7.8,2.4c2.5,1.6,5.2,4,8.4,7.3L829.3,1017.7L829.3,1017.7z"/>
		<path class="st24" d="M854.6,1017.7c-8-8.5-14-12.7-18-12.7c-2.2,0-4,1.1-5.6,3.4c-1.5,2.3-2.3,5.1-2.3,8.5
			c0,7.3,2.5,17.4,7.4,30.4l13.1,2.7h0.6l-5.2-16.1c-2.1-6.7-3.2-11.4-3.2-14.3c0-1.1,0.3-2,0.8-2.8s1.1-1.1,1.9-1.1
			c1.3,0,2.7,0.5,4,1.5s3.5,3.1,6.4,6.4L854.6,1017.7L854.6,1017.7z M853.6,1070.1c0-8.2-3-12.4-9.1-12.4c-3,0-5.5,0.9-7.6,2.7
			c2,3,3.5,6.4,4.6,10.2c2.7-1.7,4.9-2.5,6.5-2.5C849.9,1068.1,851.8,1068.8,853.6,1070.1z"/>
		<path class="st24" d="M909.6,1017.7c-5.5-5.2-9.4-8.6-11.8-10.2s-4.6-2.4-6.8-2.4c-5.4,0-8,4.8-7.7,14.4
			c-3.4-4.9-6.6-8.5-9.5-10.9c-2.9-2.3-5.9-3.5-9-3.5c-3,0-5.6,1.4-7.7,4.3s-3.2,6.3-3.2,10.4c0,5.2,1.4,10.1,4.3,14.7
			s6.5,8.4,10.9,11.3s8.3,4.3,11.7,4.3c4.3,0,7.3-2,9-5.9l10.5,5.8h2.9l-4.5-15.1c-2.3-7.6-3.5-12.8-3.5-15.6c0-3,1-4.4,3.1-4.4
			c1.3,0,2.8,0.7,4.4,2.1c1.6,1.4,3.9,3.6,6.8,6.5L909.6,1017.7L909.6,1017.7z M871.9,1014.8c3.4,0,6.7,2.9,9.7,8.8
			c3,5.9,4.6,11.3,4.6,16.2c0,1.9-0.4,3.4-1.3,4.5c-0.9,1.1-2,1.6-3.5,1.6c-3.4,0-6.7-2.9-9.8-8.8c-3.1-5.8-4.6-11.2-4.6-16.1
			c0-1.8,0.5-3.4,1.4-4.5S870.5,1014.8,871.9,1014.8z"/>
		<path class="st24" d="M668,960.3c-2.3-2.3-4.1-3.9-5.3-4.7s-2.3-1.2-3.3-1.2c-1.2,0-2.1,0.6-2.7,1.7s-1,2.8-1,4.9
			c-1.3-2.2-2.8-3.8-4.3-4.9c-1.6-1.1-3-1.7-4.3-1.7c-1.4,0-2.6,0.7-3.7,2s-1.6,2.8-1.6,4.6c0,3.6,1.3,7,4,10.1s5.5,4.6,8.5,4.6
			c0.8,0,1.5-0.1,2-0.4s1-0.7,1.6-1.2l3.5,14.6c2.8,0.7,4.8,1,5.8,1c0.3,0,0.5-0.1,0.5-0.4c0-0.2-0.4-1.9-1.2-5
			c-3.3-12.7-4.9-20.4-4.9-23c0-0.6,0.1-1.1,0.4-1.5c0.3-0.4,0.6-0.6,1-0.6c1,0,2.8,1.3,5.1,4L668,960.3L668,960.3z M650.4,959.1
			c1.6,0,3.1,1.3,4.5,4s2.1,5.2,2.1,7.6c0,1-0.2,1.7-0.7,2.3c-0.4,0.6-1,0.8-1.7,0.8c-1.5,0-3-1.4-4.4-4.2s-2.1-5.4-2.1-7.6
			c0-0.9,0.2-1.6,0.6-2.1C649.1,959.3,649.6,959.1,650.4,959.1z"/>
		<path class="st24" d="M694,960.3c-2.6-2.5-4.5-4.1-5.6-4.8c-1.1-0.8-2.2-1.1-3.2-1.1c-2.6,0-3.8,2.3-3.6,6.8
			c-1.6-2.3-3.1-4-4.5-5.1s-2.8-1.7-4.3-1.7c-1.4,0-2.6,0.7-3.6,2s-1.5,3-1.5,4.9c0,2.4,0.7,4.8,2,7s3.1,4,5.2,5.4
			c2.1,1.4,4,2,5.5,2c2,0,3.5-0.9,4.3-2.8l5,2.8h1.4l-2.2-7.1c-1.1-3.6-1.7-6-1.7-7.4s0.5-2.1,1.5-2.1c0.6,0,1.3,0.3,2.1,1
			s1.8,1.7,3.2,3.1L694,960.3L694,960.3L694,960.3z M676.1,959c1.6,0,3.2,1.4,4.6,4.2s2.2,5.3,2.2,7.7c0,0.9-0.2,1.6-0.6,2.1
			s-1,0.8-1.6,0.8c-1.6,0-3.2-1.4-4.6-4.1c-1.5-2.8-2.2-5.3-2.2-7.6c0-0.9,0.2-1.6,0.7-2.1C674.9,959.3,675.5,959,676.1,959z"/>
		<path class="st24" d="M701.4,974.6c1.1,0.3,2.3,0.5,3.4,0.7c1.1,0.2,1.8,0.3,2,0.3s0.2-0.1,0.2-0.2c0-0.2-0.1-0.5-0.2-0.8
			c-0.3-0.8-0.4-1.5-0.4-2.1c0-0.8,0.5-2,1.5-3.5s1.5-2.8,1.5-4.1c0-2.5-1.2-4.9-3.6-7.2s-4.8-3.5-7.4-3.5c-1.1,0-2.1,0.3-3,0.9
			c-0.9,0.6-1.4,1.2-1.4,1.9c0,0.4,0.5,1.1,1.3,2.2c0.9,1.1,1.5,1.6,1.9,1.6c0.5,0,1-0.7,1.4-2s1.1-2,2.1-2s1.9,0.5,2.8,1.4
			s1.3,1.9,1.3,3c0,1-0.5,2.4-1.7,4.1c-1.1,1.7-1.8,3.1-2.2,4.3c-1.9-3-4.3-6.2-7.2-9.3h-0.6v2.2
			C697.4,966.8,700.1,970.8,701.4,974.6z"/>
	</g>
</g>
</svg>
